<?xml version="1.0" encoding="utf-8"?>
<!-- Generator: Adobe Illustrator 24.3.0, SVG Export Plug-In . SVG Version: 6.00 Build 0)  -->
<svg version="1.1" id="Warstwa_1" xmlns="http://www.w3.org/2000/svg" xmlns:xlink="http://www.w3.org/1999/xlink" x="0px" y="0px"
	 viewBox="0 0 100 100" style="enable-background:new 0 0 100 100;" xml:space="preserve">
<style type="text/css">
	.st0{fill:#020203;}
</style>
<g>
	<g>
		<g>
			<path class="st0" d="M41.6,3.28c0-1.81-1.77-3.23-3.91-3.23h-18.8c-2.14,0-3.91,1.49-3.91,3.3v93.31c0,1.81,1.77,3.3,3.91,3.3
				h18.8c1.02,0,2.05-0.31,2.79-0.94c0.74-0.63,1.12-1.42,1.12-2.36v-0.08c0-3.86,3.72-7,8.38-7c4.56,0,8.28,3.15,8.38,7v0.08l0,0
				c0,0.87,0.37,1.73,1.12,2.28c0.74,0.63,1.68,0.94,2.79,0.94h18.8c2.14,0,3.91-1.49,3.91-3.3V3.28c0-1.81-1.77-3.3-3.91-3.3h-18.8
				c-2.14,0-3.82,1.42-3.91,3.23c-0.09,3.86-3.82,6.92-8.38,6.92C45.42,10.21,41.7,7.14,41.6,3.28z M68.6,16.66
				c2.14,0,3.91,1.49,3.91,3.3v60.19c0,1.81-1.77,3.3-3.91,3.3H31.46c-2.14,0-3.91-1.49-3.91-3.3V19.96c0-1.81,1.77-3.3,3.91-3.3
				H68.6z"/>
			<rect x="35.27" y="41.99" class="st0" width="29.41" height="34.85"/>
			<rect x="35.27" y="23.19" class="st0" width="29.41" height="12.27"/>
		</g>
	</g>
</g>
</svg>
