<?xml version="1.0" encoding="utf-8"?>
<!-- Generator: Adobe Illustrator 24.3.0, SVG Export Plug-In . SVG Version: 6.00 Build 0)  -->
<svg version="1.1" id="Warstwa_1" xmlns="http://www.w3.org/2000/svg" xmlns:xlink="http://www.w3.org/1999/xlink" x="0px" y="0px"
	 viewBox="0 0 50 50" style="enable-background:new 0 0 50 50;" xml:space="preserve">
<style type="text/css">
	.st0{fill:#020203;}
</style>
<g>
	<g>
		<path class="st0" d="M25,50c13.75,0,25-11.25,25-25S38.75,0,25,0S0,11.25,0,25S11.25,50,25,50z M25,2.5
			c12.42,0,22.5,10.08,22.5,22.5S37.42,47.5,25,47.5S2.5,37.42,2.5,25C2.5,12.58,12.58,2.5,25,2.5z"/>
		<path class="st0" d="M20.25,32.92c0.25,0.25,0.58,0.33,0.92,0.33c0.33,0,0.67-0.08,0.92-0.33c0.5-0.5,0.5-1.25,0-1.75l-4.92-4.92
			h18.67c0.67,0,1.25-0.58,1.25-1.25c0-0.67-0.58-1.25-1.25-1.25H17.17l4.92-4.92c0.5-0.5,0.5-1.25,0-1.75c-0.5-0.5-1.25-0.5-1.75,0
			l-7,7c-0.5,0.5-0.5,1.25,0,1.75L20.25,32.92z"/>
	</g>
</g>
</svg>
